<?xml version="1.0" encoding="UTF-8"?><svg id="Layer_2" xmlns="http://www.w3.org/2000/svg" viewBox="0 0 334.96 227.64"><g id="Layer_1-2"><path d="m283.61,108.53h-29.98c-6.55,0-12.84-2.6-17.48-7.24l-18.56-18.56c-1.93-1.93-4.99-2.41-7.26-.89-3.09,2.06-3.4,6.28-.91,8.76l12,12c2.19,2.19.64,5.93-2.46,5.93h-111.44c-3,0-5.43-2.43-5.43-5.43v-30.56c0-2.03-1.65-3.68-3.68-3.68h-4.1c-1.97,0-3.56,1.59-3.56,3.56v31.32c0,2.64-2.14,4.78-4.78,4.78H23.32c-2.66,0-4.96,1.84-5.54,4.44L.14,192.38c-.37,1.68.04,3.43,1.11,4.78,1.08,1.34,2.7,2.12,4.43,2.12h23.2c2.71,16.07,16.69,28.36,33.52,28.36s30.81-12.29,33.52-28.36h125.8c2.71,16.07,16.69,28.36,33.52,28.36s30.99-12.46,33.57-28.69c22.57-2.62,40.16-21.81,40.16-45.05,0-25.02-20.34-45.37-45.35-45.37ZM25.37,142.56h8.15c1.07,0,1.83,1.06,1.48,2.08l-2.27,6.55c-.46,1.32-1.68,2.22-3.07,2.26l-6.2.21c-1.58.05-2.79-1.4-2.44-2.94l1.26-5.67c.32-1.45,1.61-2.48,3.09-2.48Zm39.35,73.62c-14.33,1.44-26.33-10.56-24.9-24.89,1.06-10.61,9.63-19.19,20.24-20.25,14.33-1.44,26.33,10.56,24.9,24.89-1.06,10.61-9.63,19.19-20.24,20.25Zm192.84,0c-14.33,1.44-26.33-10.56-24.9-24.89,1.06-10.61,9.63-19.19,20.24-20.25,14.33-1.44,26.33,10.56,24.9,24.89-1.06,10.61-9.63,19.19-20.24,20.25Zm32.1-28.8l-1.1-.56c-.32-1.56-.76-3.08-1.28-4.55-.11-.3-.21-.59-.33-.89-.62-1.59-1.34-3.13-2.18-4.59-.14-.25-.29-.48-.44-.73-.9-1.49-1.89-2.92-3-4.24-.08-.1-.17-.18-.25-.28-1.16-1.3-2.37-2.56-3.69-3.69-.12-.1-.22-.21-.34-.31-1.32-1.11-2.75-2.1-4.23-3-.24-.15-.48-.3-.73-.44-1.47-.84-3-1.57-4.6-2.19-.29-.11-.57-.21-.86-.32-1.63-.58-3.31-1.06-5.04-1.39-.24-.05-.48-.07-.71-.11-1.84-.31-3.72-.51-5.64-.51s-3.85.2-5.71.52c-.23.04-.45.06-.68.1-1.75.34-3.45.82-5.1,1.42-.28.1-.56.2-.84.31-1.61.63-3.15,1.37-4.63,2.22-.25.14-.49.3-.74.45-1.48.91-2.9,1.91-4.23,3.03-.31.26-.57.57-.96.75-1.49.69-2.53,1.9-3.2,3.4-.03.07-.07.1-.11.14-1.15,1.38-2.16,2.88-3.08,4.44-.12.2-.25.39-.36.59-.85,1.51-1.57,3.09-2.19,4.72-.11.28-.21.55-.31.84-.6,1.74-1.07,3.54-1.39,5.4l-.04.03h-125.72s-.02-.02-.04-.03c-.31-1.86-.78-3.66-1.39-5.4-.1-.28-.2-.56-.31-.84-.62-1.64-1.34-3.22-2.19-4.72-.11-.2-.24-.39-.36-.59-.92-1.56-1.93-3.05-3.08-4.44-.06-.07-.13-.12-.14-.24-.16-1.6-1.26-2.84-2.83-3.2-.63-.14-.92-.53-1.3-.86-1.32-1.12-2.74-2.12-4.23-3.03-.25-.15-.49-.3-.74-.45-1.48-.85-3.02-1.6-4.63-2.22-.28-.11-.56-.21-.84-.31-1.65-.59-3.34-1.08-5.1-1.42-.22-.04-.45-.06-.68-.1-1.86-.32-3.76-.52-5.71-.52s-3.85.2-5.71.52c-.23.04-.45.06-.68.1-1.75.34-3.45.82-5.1,1.42-.28.1-.56.2-.84.31-1.61.63-3.15,1.37-4.63,2.22-.25.14-.49.3-.74.45-1.48.91-2.9,1.91-4.23,3.03-.31.26-.57.57-.96.76-1.49.69-2.53,1.9-3.2,3.4-.03.07-.07.1-.11.14-1.15,1.38-2.16,2.88-3.08,4.44-.12.2-.25.39-.36.59-.85,1.51-1.57,3.09-2.19,4.72-.11.28-.21.55-.31.84-.6,1.74-1.07,3.54-1.39,5.4l-.04.03h-13.26c-1.45,0-2.53-1.35-2.22-2.77l4.44-19.98,18.43-.61c2.35-.08,4.4-1.59,5.17-3.8l7.65-22.02c.81-2.34.03-5.01-2.14-6.55-.97-.68-2.16-.99-3.34-.99h-12c-3.19,0-5.56-2.95-4.87-6.07h0c.69-3.08,3.42-5.27,6.58-5.27h57.48s11.34,0,11.34,0h181.52c12.12,0,22.77,6.39,28.79,15.97.85,1.35-.57,2.98-2.02,2.33l-15.43-6.87c-2.86-1.29-6.21,0-7.49,2.87-1.27,2.86.01,6.21,2.87,7.49l27.28,12.15h0s0,.06,0,.09c-2.45,18.14-8.06,24.22-27.96,33.47Z" stroke-width="0"/><path d="m148.01,57.86s.68-23.46,13.97-29.01c.28-.12.42-.43.31-.72-.63-1.49-2.39-6.05-2.65-10.96-.41-7.69,7.43-13.44,14.45-10.3,2.78,1.24,5.27,3.8,6.42,8.71.12.52.74.76,1.18.45,5.52-3.85,33.79-21.82,45.58,5.12,0,0,3.74,14.96,28.29-2.34,24.55-17.3,69.36-6.94,72.94,17.06,1.99,13.32-1.78,25.05-20.03,29-14.33,3.1-36.89,1.34-70.21-8.43" fill="none" stroke="#000" stroke-linecap="round" stroke-miterlimit="10" stroke-width="12"/><path d="m308.46,64.89s.62,53.28-63.9,22.43c0,0-11.92-6.08-20.57-14.73" fill="none" stroke="#000" stroke-linecap="round" stroke-miterlimit="10" stroke-width="12"/><path d="m242.98,86.46s-16.42,12.54-20.86,27.73" fill="none" stroke="#000" stroke-linecap="round" stroke-miterlimit="10" stroke-width="12"/><path d="m149.7,46.65s-31.14,10.74-50.54,57.26" fill="none" stroke="#000" stroke-linecap="round" stroke-miterlimit="10" stroke-width="12"/><line x1="298.33" y1="32.38" x2="298.33" y2="46.65" fill="none" stroke="#000" stroke-linecap="round" stroke-miterlimit="10" stroke-width="12"/><line x1="213.33" y1="26.54" x2="212.07" y2="32.38" fill="none" stroke="#000" stroke-linecap="round" stroke-miterlimit="10" stroke-width="12"/></g></svg>