<?xml version="1.0" encoding="UTF-8"?><svg id="Layer_2" xmlns="http://www.w3.org/2000/svg" viewBox="0 0 192.41 215.17"><g id="Layer_1-2"><path d="m102.97,47.61c8.94-18.75,23.84-39.11,47.5-41.39,8.2-.87,18.37.73,22.06,7.9,23.83,36-24.56,57.98-49.33,73.23" fill="none" stroke="#000" stroke-linecap="round" stroke-miterlimit="10" stroke-width="12"/><path d="m41.21,148.97c-2.27-7.77-1.94-16.35,1.24-23.82" fill="none" stroke="#000" stroke-linecap="round" stroke-miterlimit="10" stroke-width="12"/><path d="m175.88,44.08s26.57,29.91-4.74,46.36c-31.32,16.45-56.63,20.74-56.63,20.74" fill="none" stroke="#000" stroke-linecap="round" stroke-miterlimit="10" stroke-width="12"/><path d="m39.32,137.94s-24.31,10.18-33.32,71.23" fill="none" stroke="#000" stroke-linecap="round" stroke-miterlimit="10" stroke-width="12"/><path d="m143.76,102.68s-2.19,6.55-.91,18.65c.03.29.06.58.1.87.95,8.14,7.48,21.52,13.77,26.78,8.9,7.44,14.35,19.56,16.62,60.2" fill="none" stroke="#000" stroke-linecap="round" stroke-miterlimit="10" stroke-width="12"/><path d="m142.84,121.32s-9.94,4.74-25.22,9.24" fill="none" stroke="#000" stroke-linecap="round" stroke-miterlimit="10" stroke-width="12"/><line x1="148.72" y1="31.93" x2="153" y2="36.84" fill="none" stroke="#000" stroke-linecap="round" stroke-miterlimit="10" stroke-width="12"/><path d="m112.85,83.54s9.41,4.85,10.2,14.27" fill="none" stroke="#000" stroke-linecap="round" stroke-miterlimit="10" stroke-width="12"/><path d="m99.58,46.74c-4.66-.17-10.21.75-16.52,2.75l-1.9-2.69c-12.2-17.24-36.15-21.34-53.38-9.14-17.24,12.2-21.34,36.15-9.14,53.38l1.9,2.69c-3.98,5.28-6.7,10.21-8.09,14.66-1.64,5.26-1.3,9.76.99,13,3.88,5.48,12.73,6.73,24.93,3.53,11.55-3.04,24.99-9.72,37.84-18.81,12.85-9.09,23.62-19.54,30.33-29.43,7.08-10.43,8.84-19.2,4.97-24.68-2.29-3.24-6.41-5.05-11.93-5.26Zm-69.48-5.79c15.42-10.92,36.85-7.25,47.77,8.18l2.76,3.9s.01.02.02.02l1.46,2.06c-1.56,3.06-7.62,13.25-24.27,25.03-16.65,11.78-28.28,14.11-31.68,14.56l-4.23-5.98c-10.92-15.42-7.25-36.85,8.18-47.77Zm73.1,33.47c-6.44,9.5-16.86,19.58-29.32,28.4-12.47,8.82-25.44,15.29-36.54,18.2-10.3,2.71-17.82,1.99-20.62-1.96-3.01-4.26-.67-12.33,6.26-21.87l.56.79h0s7.66,10.83,7.66,10.83c.39.55,1.03.87,1.7.85.56-.02,13.93-.55,34.92-15.4,6.82-4.82,8.33-5.06,13.01-10.24.69-.76.81-1.95.15-2.74-.81-.96-2.24-.96-3.04-.06-4.5,5-5.82,5.08-12.44,9.76-16.6,11.74-28.2,14.1-31.64,14.56-.02,0-.04,0-.05-.03l-5-7.06s0-.08.03-.09c5.36-1.05,16.42-4.38,31.32-14.92s21.72-19.87,24.49-24.57c.02-.04.07-.04.1,0l5,7.07s.02.04,0,.06c-.3.6-.77,1.46-1.45,2.54-.54.87-.48,2.06.3,2.73.96.82,2.37.58,3.02-.45,1.65-2.62,2.27-4.17,2.34-4.34.24-.63.15-1.34-.24-1.89l-8.17-11.55s0-.08.03-.09c11.26-3.33,19.62-2.85,22.62,1.4,2.8,3.95.97,11.28-5.01,20.09Z" fill="none" stroke="#000" stroke-miterlimit="10" stroke-width="5"/></g></svg>