<?xml version="1.0" encoding="UTF-8"?><svg id="Layer_2" xmlns="http://www.w3.org/2000/svg" viewBox="0 0 229.52 199.63"><g id="Layer_1-2"><path d="m54.31,128.8s-3.02-24.46,12.37-30.25c.58-.22.59-1.02,0-1.23-4.78-1.74-14.44-11.03-9.57-20.42" fill="none" stroke="#000" stroke-linecap="round" stroke-miterlimit="10" stroke-width="12"/><path d="m57.58,75.81s7.12-10.93,17.96,1.28c.62.7,1.76.52,2.1-.36,3.21-8.27,15.99-35.49,43.09-18.63.44.27,1.01.16,1.3-.27,5.48-8.23,50.84-73.82,85.23-44.19,4.63,3.99,7.71,9.58,7.91,15.69.41,12.52-10,32.71-68.44,51.31,0,0,.47,17.92,28.36,48.16l47.53-7.95s12.31,41.77-54.39,37.09c0,0-15.44-2.03-41.92-12" fill="none" stroke="#000" stroke-linecap="round" stroke-miterlimit="10" stroke-width="12"/><path d="m157.48,193.63s-5.45-16.52,10.75-35.69" fill="none" stroke="#000" stroke-linecap="round" stroke-miterlimit="10" stroke-width="12"/><path d="m133.17,171.65s14.48,3.64,26.33.5" fill="none" stroke="#000" stroke-linecap="round" stroke-miterlimit="10" stroke-width="12"/><path d="m173.59,70.6l5.13,11.47c.7,1.56,2.99,1.28,3.3-.4l3.06-16.69" fill="none" stroke="#000" stroke-linecap="round" stroke-miterlimit="10" stroke-width="12"/><path d="m192.83,60.41l8.68,19.34c.81,1.79,3.44,1.51,3.84-.42l8.9-42.96" stroke="#000" stroke-linecap="round" stroke-miterlimit="10" stroke-width="12"/><path d="m181.05,121.7l3.65-16.71c.19-.86,1.22-1.21,1.88-.63,2.1,1.84,6.06,6.24,9.55,15.47" stroke="#000" stroke-linecap="round" stroke-miterlimit="10" stroke-width="12"/><path d="m200.22,119.48s6.24-9.53,6.31-18.52c0-.33.23-.66.57-.68,1.17-.1,4.28,1.68,10.42,17.46" stroke="#000" stroke-linecap="round" stroke-miterlimit="10" stroke-width="12"/><path d="m54.83,115.28s-36.05,22.71-48.83,56.06" stroke="#000" stroke-linecap="round" stroke-miterlimit="10" stroke-width="12"/><line x1="111.16" y1="71.22" x2="112.21" y2="74.04" stroke="#000" stroke-linecap="round" stroke-miterlimit="10" stroke-width="12"/><path d="m183.74,27.73s3.86,6.08,4.85,10.99" stroke="#000" stroke-linecap="round" stroke-miterlimit="10" stroke-width="12"/></g></svg>