<?xml version="1.0" encoding="UTF-8"?>
<svg id="Layer_2" data-name="Layer 2" xmlns="http://www.w3.org/2000/svg" viewBox="0 0 248.98 274.01">
  <defs>
    <style>
      .cls-1, .cls-2 {
        stroke: #000;
        stroke-linecap: round;
        stroke-miterlimit: 10;
        stroke-width: 12px;
      }

      .cls-2 {
        fill: none;
      }
    </style>
  </defs>
  <g id="Layer_1-2" data-name="Layer 1">
    <path class="cls-2" d="m71.81,185.4s-1.82-24.58,13.84-29.6c.59-.19.64-.99.07-1.23-4.69-1.98-13.88-11.72-8.56-20.86"/>
    <path class="cls-2" d="m77.68,132.64s7.65-10.58,17.89,2.17c.58.73,1.72.6,2.1-.25,3.59-8.08,17.71-34.7,43.97-16.5.42.29.98.21,1.28-.2,5.82-7.88,54.39-71.28,87.3-39.98,4.43,4.21,12.87,22.39,12.77,28.5-.2,12.17-10.95,31.06-65.91,46.54-3.04.86-13.01-1,1.56,17.58,2.39,3.05,6.19,4.65,10.04,4.2l34.05-3.99c4.68-.55,8.94,2.67,9.73,7.32,2.68,15.76,2.29,48.12-48.29,42.07,0,0-15.33-2.78-41.28-14.04"/>
    <path class="cls-2" d="m171.67,255.21s-4.64-16.77,12.49-35.12"/>
    <path class="cls-2" d="m148.47,232.07s14.28,4.35,26.27,1.79"/>
    <path class="cls-1" d="m193.73,172.63s3.12-4.76,3.16-9.26c0-.17.12-.33.28-.34.59-.05,2.14.84,5.21,8.73"/>
    <path class="cls-2" d="m72.99,171.93s-33.19,18.7-48.98,48.36c-1.79,3.37-3.67,6.69-5.63,9.98-4.13,6.93-11.08,20.86-12.38,37.74"/>
    <line class="cls-1" x1="131.41" y1="130.69" x2="132.23" y2="135.28"/>
    <path class="cls-1" d="m206.04,90.81s3.55,6.26,4.31,11.21"/>
    <path class="cls-1" d="m203.93,144.64s4.98,2.8,7.07,6.79c.08.15.25.24.41.17.55-.23,1.55-1.74.72-10.18"/>
    <path class="cls-2" d="m71.42,60.85c-.35-1.5-5.61-15.8,10.54-15.77,15.03.03,19.58-1.88,19.93,15.77.34,17.65-21.41,6.76-20.29,25.53"/>
    <line class="cls-1" x1="81.27" y1="100.82" x2="81.67" y2="102.02"/>
    <path class="cls-2" d="m114.14,30.43c-.98-1.2-11.96-11.75,2.58-18.79,13.53-6.56,16.79-10.26,24.82,5.46,8.03,15.72-16.29,15.45-7.07,31.84"/>
    <line class="cls-1" x1="140.48" y1="62.05" x2="141.36" y2="62.96"/>
  </g>
</svg>