<?xml version="1.0" encoding="UTF-8"?>
<svg id="Layer_2" data-name="Layer 2" xmlns="http://www.w3.org/2000/svg" viewBox="0 0 229.52 251.46">
  <defs>
    <style>
      .cls-1, .cls-2 {
        stroke: #000;
        stroke-linecap: round;
        stroke-miterlimit: 10;
        stroke-width: 12px;
      }

      .cls-2 {
        fill: none;
      }
    </style>
  </defs>
  <g id="Layer_1-2" data-name="Layer 1">
    <path class="cls-2" d="m54.31,180.63s-3.02-24.46,12.37-30.25c.58-.22.59-1.02,0-1.23-4.78-1.74-14.44-11.03-9.57-20.42"/>
    <path class="cls-2" d="m57.58,127.64s7.12-10.93,17.96,1.28c.62.7,1.76.52,2.1-.36,3.21-8.27,15.99-35.49,43.09-18.63.44.27,1.01.16,1.3-.27,5.48-8.23,50.84-73.82,85.23-44.19,4.63,3.99,7.71,9.58,7.91,15.69.41,12.52-10,32.71-68.44,51.31,0,0,.47,17.92,28.36,48.16l47.53-7.95s12.31,41.77-54.39,37.09c0,0-15.44-2.03-41.92-12"/>
    <path class="cls-2" d="m157.48,245.46s-5.45-16.52,10.75-35.69"/>
    <path class="cls-2" d="m133.17,223.49s14.48,3.64,26.33.5"/>
    <path class="cls-2" d="m173.59,122.43l5.13,11.47c.7,1.56,2.99,1.28,3.3-.4l3.06-16.69"/>
    <path class="cls-1" d="m192.83,112.24l8.68,19.34c.81,1.79,3.44,1.51,3.84-.42l8.9-42.96"/>
    <path class="cls-1" d="m181.05,173.54l3.65-16.71c.19-.86,1.22-1.21,1.88-.63,2.1,1.84,6.06,6.24,9.55,15.47"/>
    <path class="cls-1" d="m200.22,171.32s6.24-9.53,6.31-18.52c0-.33.23-.66.57-.68,1.17-.1,4.28,1.68,10.42,17.46"/>
    <path class="cls-1" d="m54.83,167.12s-36.05,22.71-48.83,56.06"/>
    <line class="cls-1" x1="112.48" y1="129.35" x2="112.35" y2="129.35"/>
    <path class="cls-1" d="m183.74,79.56s3.86,6.08,4.85,10.99"/>
    <path class="cls-1" d="m105.48,122.4s7.17.68,11.65,2.91"/>
    <path class="cls-2" d="m66.22,65.73l6.13-33.94c.63-3.48-2.5-6.46-5.95-5.68l-20.77,4.76c-2.65.61-3.78,3.76-2.11,5.91l22.46,29.01c.07.09.21.05.23-.06Z"/>
    <line class="cls-1" x1="69.77" y1="82.94" x2="70.47" y2="84.76"/>
    <path class="cls-2" d="m115.6,46.12l18.58-29.06c1.9-2.98.15-6.93-3.34-7.51l-21.02-3.5c-2.68-.45-4.92,2.04-4.2,4.66l9.74,35.37c.03.11.18.13.24.04Z"/>
    <line class="cls-1" x1="112.34" y1="63.38" x2="112.3" y2="65.33"/>
  </g>
</svg>