<?xml version="1.0" encoding="UTF-8"?>
<svg id="Layer_2" data-name="Layer 2" xmlns="http://www.w3.org/2000/svg" viewBox="0 0 241.8 120.2">
  <defs>
    <style>
      .cls-1 {
        fill: none;
        stroke: #000;
        stroke-linecap: round;
        stroke-miterlimit: 10;
        stroke-width: 12px;
      }
    </style>
  </defs>
  <g id="Layer_1-2" data-name="Layer 1">
    <path class="cls-1" d="m54.86,57.86s.68-23.46,13.97-29.01c.28-.12.42-.43.31-.72-.63-1.49-2.39-6.05-2.65-10.96-.41-7.69,7.43-13.44,14.45-10.3,2.78,1.24,5.27,3.8,6.42,8.71.12.52.74.76,1.18.45,5.52-3.85,33.79-21.82,45.58,5.12,0,0,3.74,14.96,28.29-2.34,24.55-17.3,69.36-6.94,72.94,17.06,1.99,13.32-1.78,25.05-20.03,29-14.33,3.1-36.89,1.34-70.21-8.43"/>
    <path class="cls-1" d="m215.3,64.89s.62,53.28-63.9,22.43c0,0-11.92-6.08-20.57-14.73"/>
    <path class="cls-1" d="m149.82,86.46s-16.42,12.54-20.86,27.73"/>
    <path class="cls-1" d="m56.54,46.65s-31.14,10.74-50.54,57.26"/>
    <line class="cls-1" x1="205.17" y1="32.38" x2="205.17" y2="46.65"/>
    <line class="cls-1" x1="120.17" y1="26.54" x2="118.91" y2="32.38"/>
  </g>
</svg>