<?xml version="1.0" encoding="UTF-8"?>
<svg id="Layer_2" data-name="Layer 2" xmlns="http://www.w3.org/2000/svg" viewBox="0 0 359.02 241.82">
  <defs>
    <style>
      .cls-1 {
        stroke-width: 3px;
      }

      .cls-1, .cls-2, .cls-3 {
        stroke: #000;
        stroke-miterlimit: 10;
      }

      .cls-2, .cls-3 {
        stroke-linecap: round;
        stroke-width: 12px;
      }

      .cls-3 {
        fill: none;
      }
    </style>
  </defs>
  <g id="Layer_1-2" data-name="Layer 1">
    <path class="cls-3" d="m54.31,169.04s-3.02-24.46,12.37-30.25c.58-.22.59-1.02,0-1.23-4.78-1.74-14.44-11.03-9.57-20.42"/>
    <path class="cls-3" d="m57.58,116.05s7.12-10.93,17.97,1.28c.62.7,1.75.52,2.09-.36,3.2-8.26,15.99-35.51,43.1-18.63.43.27,1,.16,1.28-.26,5.45-8.18,50.84-73.85,85.23-44.21,4.63,3.99,7.71,9.58,7.91,15.69.4,12.13-19.71,47.9-76.75,55.82-3.3.46,8.64-1.45,9.61,1.74,1.5,4.95-.12,6.2,9.59,13.81,12.95,10.16,16.46,5.95,31.42,3.02l25.69-14.35c1.02-1.01,1.93,0,3,.96,20.87,18.65-15.93,69.07-74.22,64.98,0,0-15.44-2.03-41.92-12"/>
    <path class="cls-3" d="m139.95,235.82s-5.45-16.52,10.75-35.69"/>
    <path class="cls-3" d="m115.64,213.85s14.48,3.64,26.33.5"/>
    <path class="cls-2" d="m54.83,155.53s-36.05,22.71-48.83,56.06"/>
    <path class="cls-2" d="m183.74,67.97s3.86,6.08,4.85,10.99"/>
    <g>
      <path class="cls-1" d="m251.47,71.27c-1.15,1.28-2.21,2.47-3.29,3.69-3.01-2.39-8.62-7.05-12.74-8.15.22,1.87.26,3.47.61,5,1.94,8.66,6.16,16.19,11.69,23.03,3.42,4.23,7.28,8.01,11.93,10.89,1.26.78,2.64,1.35,4.38,2.23-.07-1.51-.02-2.58-.18-3.61-1.1-7.03-4.11-13.29-7.96-19.16-1.88-2.86-4.06-5.52-6.24-8.46,1.05-.98,2.21-2.05,3.65-3.39,2.28,3.04,4.63,5.88,6.66,8.94,4.31,6.51,7.63,13.5,8.83,21.31.23,1.52.18,3.11.06,4.65-.2,2.52-1.78,4.11-4.09,4.8-4.87,1.47-9.79,2.78-14.87,4.21-.45-1.57-.89-3.09-1.38-4.78,2.82-.81,5.54-1.59,8.35-2.4-13.13-9.44-21.71-21.83-25.93-37.45-1.05,1.41-2.03,2.74-3.01,4.07-3.54,4.82-7.1,9.62-10.58,14.48-.42.59-.65,1.54-.52,2.25,1.77,9.89,7,17.43,15.64,22.57.61.37,1.58.46,2.29.28,2.77-.67,8.31-2.14,11.19-2.95.46,1.61.89,3.13,1.34,4.72-.5.18-3.68.97-4.07,1.08-16.31,4.58-32.63,9.17-48.95,13.73-4.33,1.21-8.2-1.33-8.11-5.51.03-1.44.72-3.06,1.59-4.25,10.98-15.09,22.04-30.11,33.08-45.16,3.17-4.32,6.33-8.64,9.5-12.95,2.24-3.04,4.31-3.8,7.85-2.59,4.01,1.36,10.07,6.11,13.28,8.89Zm-38.92,26.39c-2.21,3.02-4.26,5.76-6.23,8.56-.29.42-.41,1.19-.24,1.66,1.88,5.13,4.91,9.48,9.03,13.07.32.28.86.58,1.2.49,3.48-.92,6.93-1.92,10.66-2.97-7.21-5.38-11.92-12.17-14.42-20.82Zm-10.63,14.49c-3.44,4.69-7.01,9.54-10.54,14.41-.21.29-.2,1.11-.01,1.22.42.25,1.06.38,1.53.26,5.51-1.5,11.01-3.06,16.5-4.62.18-.05.33-.19.25-.14-2.57-3.69-5.11-7.35-7.74-11.12Z"/>
      <path class="cls-1" d="m241.88,5.08c1.38-.99,2.64-1.9,4.07-2.92.83,1.34,1.65,2.57,2.37,3.86,4.17,7.43,6.47,15.39,6.87,23.91.03.64.18,1.37.52,1.89,4.83,7.3,5.97,15.28,4.36,23.74-.32,1.67-.86,3.3-1.37,5.21-1.64-.62-3.11-1.17-4.73-1.78,2.09-6.06,2.48-12.11.45-18.52-.41.81-.68,1.37-.97,1.93-2.06,3.9-5.63,5.2-9.73,3.54-3.27-1.32-5.83-3.44-7.22-6.73-1.39-3.28-1.26-6.54.9-9.47,2.25-3.05,5.47-3.98,9.11-3.65,1.08.1,2.13.37,3.36.6-.86-7.81-3.61-14.98-8-21.61Zm8.12,32.27c.08-1.14.22-2.28.19-3.42,0-.44-.27-.99-.61-1.3-2.34-2.13-6.35-2.14-8.05-.07-1.68,2.04-.94,5.3,1.68,7.39,3.64,2.91,5.86,2.05,6.78-2.6Z"/>
      <path class="cls-1" d="m320.68,96.15c.04,1.52.08,3.06.13,4.83-1.03-.12-1.89-.2-2.74-.33-3.19-.46-6.36-1.09-9.56-1.34-1.62-.13-3.3.42-5,.67,1.65,1.93,3.23,3.47,4.43,5.26,1.71,2.54,2.2,5.35.9,8.3-1.85,4.19-6.31,5.48-10.11,2.9-4.2-2.85-6.16-9.19-4.31-13.91.13-.33.26-.67.44-1.14-4-1.58-8.02-1.65-12.28-.71-.43-1.56-.84-3.09-1.29-4.74,3.83-1.1,7.59-1.15,11.34-.36,1.82.38,3.6,1.57,5.36,1.49,1.71-.07,3.32-1.56,5.08-1.94,2.41-.52,4.95-.95,7.38-.76,3.39.26,6.74,1.14,10.23,1.77Zm-21.09,7.63c-1.58,2.36-.85,6.17,1.59,8.17.53.43,1.6.87,2.01.62.64-.38,1.12-1.31,1.3-2.09.14-.63-.17-1.43-.47-2.07-.97-2.01-2.64-3.38-4.43-4.64Z"/>
      <path class="cls-1" d="m279.61,49.79c1.93.96,4.13,2.13,6.41,3.14.85.38,1.87.56,2.8.52,2.07-.1,4.14-.38,6.2-.61,1.19-.13,2.31-.08,3.06,1.03.75,1.11.38,2.18-.19,3.23-.22.41-.37.87-.64,1.25-2.6,3.72-3.07,7.77-2.13,12.13.31,1.43.7,3.06-.83,4.15-1.56,1.11-2.95.17-4.17-.64-3.88-2.58-8.02-3.32-12.55-2.27-1.44.33-3.06.69-4.13-.88-1.07-1.58-.1-2.95.7-4.17,2.52-3.84,3.34-7.92,2.24-12.4-.17-.7-.22-1.45-.21-2.17.04-1.7,1.44-2.76,3.42-2.32Zm2.15,6.7c.74,3.62.25,6.9-1.84,10.01,3.66-1.09,6.81-.22,9.92,1.69-.96-3.61-.25-6.78,1.75-9.87-3.62.86-6.78.32-9.83-1.82Z"/>
      <path class="cls-1" d="m290.49,44.26c-.83-1.42-1.62-2.75-2.38-4.06,1.94-2.56,2-3.48.5-5.96-2.74-4.51-1.83-7.94,2.95-10.38,3.12-1.59,5.68-3.63,7-6.97.29-.72.47-1.48.76-2.37,1.52.28,3.07.56,4.77.87-.29,2.77-1.51,5.18-3.16,7.4-1.68,2.26-3.87,3.88-6.38,5.13-2.93,1.47-2.93,1.57-1.29,4.36,2.55,4.33,1.45,9.36-2.77,11.97Z"/>
      <path class="cls-1" d="m334.56,50.9c.3-1.63.57-3.14.85-4.66,4.44-.13,7.65,2.52,8.41,6.85.26,1.47.58,2.96,1.08,4.36.48,1.38,1.48,2.34,3.02,2.66.34.07.78.48.88.82.37,1.29.62,2.61.91,3.91-3.28.78-6.84-.72-8.61-4-1.01-1.88-1.59-4.04-2.07-6.14-.63-2.75-.68-2.97-3.49-3.57-.25-.05-.5-.12-.96-.23Z"/>
      <path class="cls-1" d="m319.86,42.42c2.9,3.43,1.64,6.24-3.95,8.99.47.84.88,1.7,1.4,2.5,2.49,3.86.37,8.43-4.33,9.09-.36-1.5-.73-3-1.11-4.59,1.5-.53,1.64-1.24.75-2.63-.8-1.26-1.24-2.84-1.47-4.34-.3-1.98.65-3.74,2.45-4.47,2.47-1,4.52-2.44,6.27-4.55Z"/>
      <path class="cls-1" d="m309.66,79.13c-.32.34-.72.76-1.18,1.24-1.44-.98-2.74-1.86-4.04-2.75,2.71-4.26,7.38-4.47,10.21-.62.51.69,1.12,1.29,1.79,2.06,1.71-2.04,3.27-3.93,6.1-3.39,1.57.3,2.79,1.05,3.6,2.69-.53.26-1.01.54-1.52.74-1.65.67-3.06,1.58-4.25,3.01-1.85,2.22-4.59,2.45-7,.67-1.27-.94-2.29-2.23-3.72-3.64Z"/>
      <path class="cls-1" d="m346.15,35.79c-1.6-.86-2.96-1.59-4.13-2.22.27-7.73,5.33-9.77,12-10.03.69,1.1,1.54,2.44,2.62,4.14-1.9.46-3.51,1.05-5.17,1.2-2.45.22-3.97,1.17-4.32,3.75-.14,1-.61,1.95-1,3.17Z"/>
      <path class="cls-1" d="m303.2,32.27c1.97-1.3,3.82-2.51,5.84-3.84.84,1.43,1.64,2.8,2.52,4.3-1.75,1.16-3.69,2.43-5.79,3.82-.86-1.43-1.67-2.78-2.57-4.28Z"/>
      <path class="cls-1" d="m276.41,87.72c-1.02-1.7-1.81-3.03-2.66-4.46,1.9-1.24,3.75-2.45,5.73-3.75.97,1.33,1.9,2.61,2.69,3.7-1.93,1.51-3.76,2.95-5.76,4.51Z"/>
    </g>
    <path class="cls-3" d="m116.16,116.4l-1.29-.07c-2.2-.12-4.34.69-5.92,2.22l-.7.69"/>
    <path class="cls-3" d="m305.99,145.77s9.41,4.85,10.2,14.27"/>
  </g>
</svg>