<?xml version="1.0" encoding="UTF-8"?><svg id="Layer_2" xmlns="http://www.w3.org/2000/svg" viewBox="0 0 241.57 159.06"><g id="Layer_1-2"><path d="m132.05,10.04c-.62-.48-1.48-.59-2.22-.28l-8.97,3.66c-.34.14-.73.02-.91-.28l-5.22-8.63c-.57-.94-1.87-1.28-2.89-.76-.35.18-.63.44-.83.76l-5.22,8.63c-.18.3-.57.42-.91.28l-8.97-3.66c-1.07-.44-2.33,0-2.81.99-.19.39-.23.83-.13,1.24l4.51,17.64c.23.88,1.08,1.5,2.07,1.51.2,0,.39-.02.58-.07,8.33-2.11,17.13-2.11,25.46,0,1.13.29,2.31-.31,2.63-1.36,0-.03.02-.05.02-.08l4.52-17.64c.19-.72-.09-1.48-.71-1.95Zm-.67,1.65l-4.52,17.64c-.04.17-.16.32-.33.41-.17.09-.37.12-.56.07-8.58-2.17-17.64-2.17-26.22,0-.19.05-.39.03-.56-.07-.17-.09-.28-.24-.33-.41h0s-4.51-17.64-4.51-17.64c-.09-.35.15-.7.53-.79.05-.01.1-.02.15-.02.1,0,.2.02.29.06l8.97,3.66c1.01.42,2.19.05,2.72-.84l5.22-8.63c.19-.31.62-.43.96-.25.12.06.21.15.28.25l5.22,8.63c.53.89,1.72,1.25,2.72.84l8.97-3.66c.36-.15.78,0,.94.33.06.13.08.28.04.41h0Z" stroke="#000" stroke-miterlimit="10" stroke-width="7"/><path d="m54.86,92.93s.68-23.46,13.97-29.01c.28-.12.42-.43.31-.72-.63-1.49-2.39-6.05-2.65-10.96-.41-7.69,7.43-13.44,14.45-10.3,2.78,1.24,5.27,3.8,6.42,8.71.12.52.74.76,1.18.45,5.52-3.85,33.79-21.82,45.58,5.12,0,0,4.17,4.97,28.29-2.34,28.74-8.71,69.36-6.94,72.94,17.06,1.99,13.32-8.14,26.45-26.39,30.4-14.33,3.1-38.94,4.53-63.72-10.01" fill="none" stroke="#000" stroke-linecap="round" stroke-miterlimit="10" stroke-width="12"/><path d="m208.94,101.35s0,41.16-63.9,22.43c0,0-11.92-6.08-20.57-14.73" fill="none" stroke="#000" stroke-linecap="round" stroke-miterlimit="10" stroke-width="12"/><path d="m145.33,125.33c2.69-2.89-13.31,9.2-20.86,27.73" fill="none" stroke="#000" stroke-linecap="round" stroke-miterlimit="10" stroke-width="12"/><path d="m56.54,81.72s-31.14,10.74-50.54,57.26" fill="none" stroke="#000" stroke-linecap="round" stroke-miterlimit="10" stroke-width="12"/><line x1="205.17" y1="67.45" x2="205.17" y2="81.72" fill="none" stroke="#000" stroke-linecap="round" stroke-miterlimit="10" stroke-width="12"/><path d="m121.25,70.77l-1.15-.6c-1.95-1.03-4.23-1.19-6.3-.44l-.93.33" fill="none" stroke="#000" stroke-linecap="round" stroke-miterlimit="10" stroke-width="12"/><path d="m139.89,85.56s6.78,8.13,3.85,17.12" fill="none" stroke="#000" stroke-linecap="round" stroke-miterlimit="10" stroke-width="12"/></g></svg>