<?xml version="1.0" encoding="UTF-8"?><svg id="Layer_2" xmlns="http://www.w3.org/2000/svg" viewBox="0 0 247.73 189.18"><g id="Layer_1-2"><path d="m54.22,103.88s9.63-17.96,24.27-16.25c.29.03.5-.26.35-.51-1.11-1.97-4.21-8.38-1.69-14.44,2.63-6.32,10.14-8.89,16.44-6.23,3.29,1.39,6.25,4.06,6.18,9.19-.02,1.25,1.34,2.01,2.36,1.28,8.42-6.05,33.64-20.83,44.3,9.65.93,2.67,3.97,3.96,6.56,2.82,15.06-6.62,53.43-24.83,78.64-2.29,6.75,6.04,10.74,14.72,10.03,23.75-1.18,15.06-9.9,33.41-78.78,5.21" fill="none" stroke="#000" stroke-linecap="round" stroke-miterlimit="10" stroke-width="12"/><path d="m222.76,130.94s-8.68,21.26-42.06,9.55-48.87-8.74-48.87-8.74" fill="none" stroke="#000" stroke-linecap="round" stroke-miterlimit="10" stroke-width="12"/><path d="m129.77,92.43l-1.15-.6c-1.95-1.03-4.23-1.19-6.3-.44l-.93.33" fill="none" stroke="#000" stroke-linecap="round" stroke-miterlimit="10" stroke-width="12"/><line x1="213.13" y1="102.78" x2="212.46" y2="109.26" fill="none" stroke="#000" stroke-linecap="round" stroke-miterlimit="10" stroke-width="12"/><path d="m79.57,123.93s-27.6-2.71-16.33-29.34" fill="none" stroke="#000" stroke-linecap="round" stroke-miterlimit="10" stroke-width="12"/><path d="m157.48,183.18s-5.45-16.52,10.75-35.69" fill="none" stroke="#000" stroke-linecap="round" stroke-miterlimit="10" stroke-width="12"/><path d="m133.17,161.21s14.48,3.64,26.33.5" fill="none" stroke="#000" stroke-linecap="round" stroke-miterlimit="10" stroke-width="12"/><path d="m54.83,104.84s-19.4,9.85-33.72,26.1c-7.43,8.42-10.74,18.57-15.11,29.96" fill="none" stroke="#000" stroke-linecap="round" stroke-miterlimit="10" stroke-width="12"/><path d="m109.94,13.96l35.9-7.94c.71-.16,1.21.66.76,1.23l-23.96,29.51c-.44.54.02,1.34.7,1.24l36.16-5.33" fill="none" stroke="#000" stroke-linecap="round" stroke-miterlimit="10" stroke-width="12"/><path d="m195.27,8.66l32.35,7.05c.66.14.77,1.04.16,1.34l-33.18,16.33c-1.85.91-1.72,3.59.21,4.31l36.04,6.82" fill="none" stroke="#000" stroke-linecap="round" stroke-miterlimit="10" stroke-width="12"/></g></svg>